<svg width="216" height="216" viewBox="0 0 216 216" fill="none" xmlns="http://www.w3.org/2000/svg">
<circle cx="108" cy="108" r="108" fill="white"/>
<g clip-path="url(#clip0_51_2)">
<path fill-rule="evenodd" clip-rule="evenodd" d="M117.45 123.3C118.178 123.3 118.767 123.89 118.767 124.617C118.767 125.343 118.178 125.933 117.45 125.933H99.0167C98.2899 125.933 97.7 125.343 97.7 124.617C97.7 123.89 98.2899 123.3 99.0167 123.3H117.45ZM125.35 118.033H99.0167C98.2899 118.033 97.7 117.443 97.7 116.717C97.7 115.99 98.2899 115.4 99.0167 115.4H125.35C126.078 115.4 126.667 115.99 126.667 116.717C126.667 117.443 126.078 118.033 125.35 118.033ZM127.983 110.133H99.0167C98.2899 110.133 97.7 109.543 97.7 108.817C97.7 108.09 98.2899 107.5 99.0167 107.5H127.983C128.711 107.5 129.3 108.09 129.3 108.817C129.3 109.543 128.711 110.133 127.983 110.133ZM97.7 100.917C97.7 100.19 98.2899 99.6 99.0167 99.6H122.717C123.445 99.6 124.033 100.19 124.033 100.917C124.033 101.643 123.445 102.233 122.717 102.233H99.0167C98.2899 102.233 97.7 101.643 97.7 100.917ZM97.7 93.0167C97.7 92.2899 98.2899 91.7 99.0167 91.7H125.35C126.078 91.7 126.667 92.2899 126.667 93.0167C126.667 93.7435 126.078 94.3333 125.35 94.3333H99.0167C98.2899 94.3333 97.7 93.7435 97.7 93.0167ZM92.4333 124.617C92.4333 125.343 91.8435 125.933 91.1167 125.933H88.4833C87.7565 125.933 87.1667 125.343 87.1667 124.617C87.1667 123.89 87.7565 123.3 88.4833 123.3H91.1167C91.8435 123.3 92.4333 123.89 92.4333 124.617ZM92.4333 116.717C92.4333 117.443 91.8435 118.033 91.1167 118.033H88.4833C87.7565 118.033 87.1667 117.443 87.1667 116.717C87.1667 115.99 87.7565 115.4 88.4833 115.4H91.1167C91.8435 115.4 92.4333 115.99 92.4333 116.717ZM92.4333 108.817C92.4333 109.543 91.8435 110.133 91.1167 110.133H88.4833C87.7565 110.133 87.1667 109.543 87.1667 108.817C87.1667 108.09 87.7565 107.5 88.4833 107.5H91.1167C91.8435 107.5 92.4333 108.09 92.4333 108.817ZM92.4333 100.917C92.4333 101.643 91.8435 102.233 91.1167 102.233H88.4833C87.7565 102.233 87.1667 101.643 87.1667 100.917C87.1667 100.19 87.7565 99.6 88.4833 99.6H91.1167C91.8435 99.6 92.4333 100.19 92.4333 100.917ZM92.4333 93.0167C92.4333 93.7435 91.8435 94.3333 91.1167 94.3333H88.4833C87.7565 94.3333 87.1667 93.7435 87.1667 93.0167C87.1667 92.2899 87.7565 91.7 88.4833 91.7H91.1167C91.8435 91.7 92.4333 92.2899 92.4333 93.0167ZM92.4333 74.5833C92.4333 73.8565 93.0232 73.2667 93.75 73.2667H96.3833C97.1101 73.2667 97.7 73.8565 97.7 74.5833C97.7 75.3101 97.1101 75.9 96.3833 75.9H93.75C93.0232 75.9 92.4333 75.3101 92.4333 74.5833ZM105.6 74.5833C105.6 73.8565 106.19 73.2667 106.917 73.2667H109.55C110.278 73.2667 110.867 73.8565 110.867 74.5833C110.867 75.3101 110.278 75.9 109.55 75.9H106.917C106.19 75.9 105.6 75.3101 105.6 74.5833ZM118.767 74.5833C118.767 73.8565 119.355 73.2667 120.083 73.2667H122.717C123.445 73.2667 124.033 73.8565 124.033 74.5833C124.033 75.3101 123.445 75.9 122.717 75.9H120.083C119.355 75.9 118.767 75.3101 118.767 74.5833ZM88.4833 78.5333C89.2088 78.5333 89.8 79.1245 89.8 79.85C89.8 80.5755 89.2088 81.1667 88.4833 81.1667C87.7579 81.1667 87.1667 80.5755 87.1667 79.85C87.1667 79.1245 87.7579 78.5333 88.4833 78.5333ZM84.5333 79.85C84.5333 82.0278 86.3056 83.8 88.4833 83.8C90.6611 83.8 92.4333 82.0278 92.4333 79.85C92.4333 78.1357 91.33 76.6887 89.8 76.1423V69.3167C89.8 68.5899 89.2101 68 88.4833 68C87.7565 68 87.1667 68.5899 87.1667 69.3167V76.1423C85.6367 76.6887 84.5333 78.1357 84.5333 79.85ZM127.983 78.5333C128.71 78.5333 129.3 79.1245 129.3 79.85C129.3 80.5755 128.71 81.1667 127.983 81.1667C127.257 81.1667 126.667 80.5755 126.667 79.85C126.667 79.1245 127.257 78.5333 127.983 78.5333ZM124.033 79.85C124.033 82.0278 125.806 83.8 127.983 83.8C130.161 83.8 131.933 82.0278 131.933 79.85C131.933 78.1357 130.829 76.6887 129.3 76.1423V69.3167C129.3 68.5899 128.711 68 127.983 68C127.255 68 126.667 68.5899 126.667 69.3167V76.1423C125.138 76.6887 124.033 78.1357 124.033 79.85ZM114.817 78.5333C115.543 78.5333 116.133 79.1245 116.133 79.85C116.133 80.5755 115.543 81.1667 114.817 81.1667C114.09 81.1667 113.5 80.5755 113.5 79.85C113.5 79.1245 114.09 78.5333 114.817 78.5333ZM110.867 79.85C110.867 82.0278 112.639 83.8 114.817 83.8C116.994 83.8 118.767 82.0278 118.767 79.85C118.767 78.1357 117.662 76.6887 116.133 76.1423V69.3167C116.133 68.5899 115.545 68 114.817 68C114.089 68 113.5 68.5899 113.5 69.3167V76.1423C111.971 76.6887 110.867 78.1357 110.867 79.85ZM101.65 78.5333C102.375 78.5333 102.967 79.1245 102.967 79.85C102.967 80.5755 102.375 81.1667 101.65 81.1667C100.925 81.1667 100.333 80.5755 100.333 79.85C100.333 79.1245 100.925 78.5333 101.65 78.5333ZM97.7 79.85C97.7 82.0278 99.4722 83.8 101.65 83.8C103.828 83.8 105.6 82.0278 105.6 79.85C105.6 78.1357 104.497 76.6887 102.967 76.1423V69.3167C102.967 68.5899 102.377 68 101.65 68C100.923 68 100.333 68.5899 100.333 69.3167V76.1423C98.8034 76.6887 97.7 78.1357 97.7 79.85ZM135.883 144.367H80.5833C79.106 144.367 77.5734 143.162 76.9401 141.733H139.527C138.893 143.162 137.361 144.367 135.883 144.367ZM76.6333 139.1H139.833V136.467H76.6333V139.1ZM135.883 73.2667H133.25C132.522 73.2667 131.933 73.8565 131.933 74.5833C131.933 75.3101 132.522 75.9 133.25 75.9H135.883C137.803 75.9 139.833 77.9303 139.833 79.85V133.833H76.6333V79.85C76.6333 77.9303 78.6636 75.9 80.5833 75.9H83.2167C83.9435 75.9 84.5333 75.3101 84.5333 74.5833C84.5333 73.8565 83.9435 73.2667 83.2167 73.2667H80.5833C77.1995 73.2667 74 76.4662 74 79.85V140.417C74 143.801 77.1995 147 80.5833 147H135.883C139.267 147 142.467 143.801 142.467 140.417V79.85C142.467 76.4662 139.267 73.2667 135.883 73.2667Z" fill="black"/>
</g>
<defs>
<clipPath id="clip0_51_2">
<rect width="68.4667" height="79" fill="white" transform="translate(74 68)"/>
</clipPath>
</defs>
</svg>
